<svg width="32" height="36" viewBox="0 0 32 36" fill="none" xmlns="http://www.w3.org/2000/svg">
<path d="M15.3923 7.51641C13.6591 5.78257 12.4728 2.75484 11.884 0C11.2944 2.75541 10.1093 5.78377 8.3755 7.5176C6.6423 9.25024 3.61366 10.4366 0.859375 11.0265C3.61478 11.6152 6.64286 12.8008 8.37606 14.5347C10.1093 16.2679 11.2956 19.2963 11.8852 22.0511C12.4739 19.2957 13.6599 16.2674 15.3928 14.5335C17.126 12.8003 20.1547 11.6146 22.909 11.0246C20.1542 10.4359 17.1261 9.24968 15.3923 7.51641Z" fill="white"/>
<path d="M26.6509 21.3989C25.6163 20.3638 24.9064 18.554 24.5547 16.9084C24.2024 18.554 23.4949 20.3637 22.4592 21.3994C21.4235 22.434 19.6141 23.1433 17.9688 23.4956C19.6146 23.8479 21.4235 24.556 22.4592 25.5917C23.4949 26.6268 24.2036 28.4365 24.5559 30.0821C24.9075 28.4359 25.6163 26.6268 26.6514 25.5911C27.6865 24.556 29.4962 23.8472 31.1412 23.4944C29.4963 23.1427 27.6866 22.434 26.6509 21.3989Z" fill="white"/>
<path d="M8.29053 24.9399C7.99473 26.3214 7.40073 27.8412 6.53138 28.7105C5.66218 29.5792 4.14301 30.1744 2.76172 30.4702C4.14301 30.7667 5.66218 31.3601 6.53138 32.2299C7.40073 33.0991 7.99592 34.6178 8.29173 36C8.58725 34.6178 9.18153 33.0992 10.0512 32.2294C10.9198 31.3602 12.4392 30.7655 13.8203 30.4691C12.4393 30.1738 10.9198 29.5792 10.0506 28.71C9.18153 27.8413 8.58605 26.3215 8.29053 24.9399Z" fill="white"/>
</svg>
